<?xml version="1.0" encoding="utf-8"?>
<!-- Generator: Adobe Illustrator 26.0.0, SVG Export Plug-In . SVG Version: 6.00 Build 0)  -->
<svg version="1.1" id="Layer_1" xmlns="http://www.w3.org/2000/svg" xmlns:xlink="http://www.w3.org/1999/xlink" x="0px" y="0px"
	 viewBox="0 0 137.9 137.9" style="enable-background:new 0 0 137.9 137.9;" xml:space="preserve">
<style type="text/css">
	.st0{fill:#FFDE69;}
	.st1{fill:#F9C800;}
	.st2{fill:#FFFFFF;stroke:#FFFFFF;stroke-width:6;stroke-miterlimit:10;}
</style>
<rect x="0" y="0" class="st0" width="137.9" height="137.9"/>
<g>
	<rect x="0" y="0" class="st1" width="27.6" height="27.6"/>
	<rect x="27.6" y="27.5" class="st1" width="27.6" height="27.6"/>
	<rect x="82.7" y="82.7" class="st1" width="27.6" height="27.6"/>
	<rect x="110.3" y="110.2" class="st1" width="27.6" height="27.6"/>
</g>
<g>
	<rect x="0" y="110.2" class="st1" width="27.6" height="27.6"/>
	<rect x="27.5" y="82.7" class="st1" width="27.6" height="27.6"/>
	<rect x="82.7" y="27.5" class="st1" width="27.6" height="27.6"/>
	<rect x="110.2" y="0" class="st1" width="27.6" height="27.6"/>
</g>
<g>
	<g>
		<path class="st2" d="M68.5,98.9c-2.7,0-4.9,2.2-4.9,4.9v0.5c0,2.7,2.2,4.9,4.9,4.9c2.7,0,4.9-2.2,4.9-4.9v-0.5
			C73.4,101.1,71.2,98.9,68.5,98.9z"/>
		<path class="st2" d="M86,34.4c-4.2-3.9-9.7-5.8-16.4-5.8s-12.4,2-17,6s-7,10.4-7,19.1H55c0-5.7,1.2-10,3.6-12.8s6-4.2,10.6-4.2
			c4.1,0,7.3,1.2,9.6,3.5s3.4,5.2,3.4,8.7c0,3.3-0.6,5.8-1.8,7.5c-1.2,1.7-3.5,4.2-6.8,7.5c-4.7,4.7-7.6,8.5-8.6,11.4
			c-1,2.9-1.5,6.8-1.5,11.7h9.4c0-4.4,0.4-7.7,1.3-9.9c0.9-2.1,3.5-5.4,8-9.8c4-3.8,6.7-6.9,8.1-9.2s2-5.1,2-8.4
			C92.3,43.4,90.2,38.3,86,34.4z"/>
	</g>
</g>
</svg>
